<svg width="700" height="285" viewBox="0 0 700 285" fill="none" xmlns="http://www.w3.org/2000/svg">
<path d="M16.8056 277.367C16.0056 277.767 14.2056 278.167 11.9056 278.167C5.90558 278.167 2.20557 274.367 2.20557 268.667C2.20557 262.367 6.50557 258.667 12.3056 258.667C14.6056 258.667 16.2056 259.167 16.9056 259.467L16.1056 262.267C15.2056 261.867 14.0056 261.567 12.4056 261.567C8.50558 261.567 5.80557 263.967 5.80557 268.567C5.80557 272.767 8.30558 275.367 12.4056 275.367C13.8056 275.367 15.3056 275.067 16.2056 274.667L16.8056 277.367Z" fill="white"/>
<path d="M32.1056 270.967C32.1056 275.967 28.6056 278.267 25.1056 278.267C21.2056 278.267 18.2056 275.567 18.2056 271.167C18.2056 266.667 21.2056 263.867 25.3056 263.867C29.3056 263.967 32.1056 266.867 32.1056 270.967ZM21.7056 271.167C21.7056 273.767 23.0056 275.767 25.1056 275.767C27.1056 275.767 28.4056 273.867 28.4056 271.067C28.4056 268.967 27.4056 266.467 25.1056 266.467C22.7056 266.467 21.7056 268.867 21.7056 271.167Z" fill="white"/>
<path d="M34.9056 264.467C35.9056 264.267 38.0056 264.167 39.9056 264.167C42.2056 264.167 46.4056 264.467 46.4056 267.667C46.4056 269.367 45.0056 270.367 43.6056 270.667V270.767C45.6056 271.067 47.0056 272.167 47.0056 274.067C47.0056 277.867 42.0056 278.167 39.3056 278.167C37.6056 278.167 35.8056 278.067 34.9056 277.967V264.467ZM38.2056 275.867C38.8056 275.967 39.2056 275.967 39.9056 275.967C41.5056 275.967 43.4056 275.567 43.4056 273.967C43.4056 272.467 41.9056 271.867 39.7056 271.867H38.2056V275.867ZM38.2056 269.767H39.6056C41.4056 269.767 42.8056 269.267 42.8056 267.967C42.8056 266.867 41.8056 266.267 39.8056 266.267C39.1056 266.267 38.7056 266.367 38.1056 266.367V269.767H38.2056Z" fill="white"/>
<path d="M49.7056 268.767C49.7056 266.967 49.6056 265.467 49.6056 264.167H52.6056L52.8056 266.267H52.9056C53.9056 264.767 55.5056 263.867 57.6056 263.867C60.8056 263.867 63.4056 266.567 63.4056 270.867C63.4056 275.867 60.3056 278.167 57.2056 278.167C55.5056 278.167 54.0056 277.467 53.3056 276.367H53.2056V283.467H49.7056V268.767ZM53.2056 272.267C53.2056 272.567 53.2056 272.867 53.3056 273.267C53.6056 274.667 54.9056 275.667 56.3056 275.667C58.5056 275.667 59.8056 273.867 59.8056 271.167C59.8056 268.767 58.6056 266.767 56.4056 266.767C55.0056 266.767 53.6056 267.767 53.3056 269.367C53.2056 269.667 53.2056 269.967 53.2056 270.267V272.267Z" fill="white"/>
<path d="M68.7055 272.067C68.8055 274.567 70.7055 275.567 72.9055 275.567C74.5055 275.567 75.7055 275.367 76.7055 274.967L77.2055 277.367C76.0055 277.867 74.4055 278.167 72.4055 278.167C68.0055 278.167 65.3055 275.467 65.3055 271.267C65.3055 267.467 67.6055 263.867 72.0055 263.867C76.4055 263.867 77.9055 267.567 77.9055 270.567C77.9055 271.167 77.8055 271.767 77.8055 272.067H68.7055ZM74.7055 269.667C74.7055 268.367 74.2055 266.367 71.9055 266.367C69.8055 266.367 68.9055 268.267 68.7055 269.667H74.7055Z" fill="white"/>
<path d="M81.1056 264.267H85.5056L87.4056 270.267C87.7056 271.167 88.2056 272.667 88.5056 273.867H88.6056C88.9056 272.867 89.5056 271.067 89.9056 269.667L91.7056 264.267H96.1056L97.0056 277.967H93.8056L93.5056 271.967C93.4056 270.667 93.3056 268.767 93.3056 267.167H93.2056C92.8056 268.767 92.5056 269.467 91.8056 271.667L89.6056 277.867H87.1056L85.1056 271.867C84.7056 270.567 84.2056 268.567 83.9056 267.267H83.8056C83.8056 268.967 83.7056 270.767 83.6056 272.167L83.3056 278.067H80.2056L81.1056 264.267Z" fill="white"/>
<path d="M102.306 272.067C102.406 274.567 104.305 275.567 106.505 275.567C108.105 275.567 109.306 275.367 110.306 274.967L110.806 277.367C109.606 277.867 108.005 278.167 106.005 278.167C101.605 278.167 98.9055 275.467 98.9055 271.267C98.9055 267.467 101.205 263.867 105.605 263.867C110.005 263.867 111.505 267.567 111.505 270.567C111.505 271.167 111.406 271.767 111.406 272.067H102.306ZM108.306 269.667C108.306 268.367 107.805 266.367 105.505 266.367C103.405 266.367 102.506 268.267 102.306 269.667H108.306Z" fill="white"/>
<path d="M117.806 264.267V269.467H123.106V264.267H126.606V277.967H123.106V272.167H117.806V277.967H114.306V264.267H117.806Z" fill="white"/>
<path d="M133.706 264.267V269.467H139.006V264.267H142.506V277.967H139.006V272.167H133.706V277.967H130.206V264.267H133.706Z" fill="white"/>
<path d="M149.506 264.267V268.567C150.006 268.467 150.806 268.367 151.706 268.367C154.706 268.367 157.806 269.667 157.806 273.067C157.806 274.667 157.106 275.767 156.106 276.467C154.506 277.667 152.206 277.967 150.206 277.967C148.706 277.967 147.306 277.867 146.006 277.767V264.067H149.506V264.267ZM149.506 275.667C149.906 275.767 150.406 275.767 151.006 275.767C152.606 275.767 154.306 275.167 154.306 273.267C154.306 271.467 152.606 270.867 151.106 270.867C150.406 270.867 149.906 270.967 149.506 270.967V275.667ZM162.906 264.267V277.967H159.406V264.267H162.906Z" fill="white"/>
<path d="M169.006 272.067C169.106 274.567 171.006 275.567 173.206 275.567C174.806 275.567 176.006 275.367 177.006 274.967L177.506 277.367C176.306 277.867 174.706 278.167 172.706 278.167C168.306 278.167 165.606 275.467 165.606 271.267C165.606 267.467 167.906 263.867 172.306 263.867C176.706 263.867 178.206 267.567 178.206 270.567C178.206 271.167 178.106 271.767 178.106 272.067H169.006ZM175.006 269.667C175.006 268.367 174.506 266.367 172.206 266.367C170.106 266.367 169.206 268.267 169.006 269.667H175.006Z" fill="white"/>
<path d="M186.906 268.767C186.906 266.967 186.806 265.467 186.806 264.167H189.806L190.006 266.267H190.106C191.106 264.767 192.706 263.867 194.806 263.867C198.006 263.867 200.606 266.567 200.606 270.867C200.606 275.867 197.506 278.167 194.406 278.167C192.706 278.167 191.206 277.467 190.506 276.367H190.406V283.467H186.906V268.767ZM190.406 272.267C190.406 272.567 190.406 272.867 190.506 273.267C190.806 274.667 192.106 275.667 193.506 275.667C195.706 275.667 197.006 273.867 197.006 271.167C197.006 268.767 195.806 266.767 193.606 266.767C192.206 266.767 190.806 267.767 190.506 269.367C190.406 269.667 190.406 269.967 190.406 270.267V272.267Z" fill="white"/>
<path d="M205.806 272.067C205.906 274.567 207.805 275.567 210.005 275.567C211.605 275.567 212.806 275.367 213.806 274.967L214.306 277.367C213.106 277.867 211.505 278.167 209.505 278.167C205.105 278.167 202.406 275.467 202.406 271.267C202.406 267.467 204.705 263.867 209.105 263.867C213.505 263.867 215.005 267.567 215.005 270.567C215.005 271.167 214.906 271.767 214.906 272.067H205.806ZM211.806 269.667C211.806 268.367 211.305 266.367 209.005 266.367C206.905 266.367 206.006 268.267 205.806 269.667H211.806Z" fill="white"/>
<path d="M221.306 264.267V275.267H225.306V264.267H228.706V275.267H232.706V264.267H236.106V277.967H217.806V264.267H221.306Z" fill="white"/>
<path d="M242.206 272.067C242.306 274.567 244.206 275.567 246.406 275.567C248.006 275.567 249.206 275.367 250.206 274.967L250.706 277.367C249.506 277.867 247.906 278.167 245.906 278.167C241.506 278.167 238.806 275.467 238.806 271.267C238.806 267.467 241.106 263.867 245.506 263.867C249.906 263.867 251.406 267.567 251.406 270.567C251.406 271.167 251.306 271.767 251.306 272.067H242.206ZM248.306 269.667C248.306 268.367 247.806 266.367 245.506 266.367C243.406 266.367 242.506 268.267 242.306 269.667H248.306Z" fill="white"/>
<path d="M257.706 264.267V269.467H263.006V264.267H266.506V277.967H263.006V272.167H257.706V277.967H254.206V264.267H257.706Z" fill="white"/>
<path d="M273.406 264.267V269.167C273.406 271.367 273.306 272.767 273.206 274.667H273.306C274.006 273.067 274.506 272.067 275.206 270.567L278.606 264.167H282.806V277.867H279.506V272.967C279.506 270.767 279.606 269.767 279.706 267.167H279.606C278.906 268.767 278.506 269.767 277.806 271.067C276.706 273.067 275.506 275.567 274.306 277.867H270.206V264.167H273.406V264.267Z" fill="white"/>
<path d="M297.706 277.967H294.306V272.567H293.006C292.006 272.567 291.406 272.967 290.906 273.467C290.006 274.267 289.706 275.667 289.206 276.867C289.006 277.267 288.906 277.567 288.706 277.967H285.006C285.306 277.567 285.606 276.967 285.806 276.467C286.306 275.267 286.806 273.467 287.906 272.567C288.306 272.167 288.906 271.767 289.506 271.667V271.567C287.906 271.367 285.906 270.367 285.906 268.167C285.906 266.567 286.806 265.567 288.006 264.967C289.206 264.367 291.006 264.067 292.806 264.067C294.706 264.067 296.506 264.167 297.706 264.367V277.967V277.967ZM294.306 266.367C293.806 266.267 293.306 266.267 292.606 266.267C291.106 266.267 289.506 266.767 289.506 268.367C289.506 269.767 291.206 270.467 292.606 270.467C293.406 270.467 293.906 270.467 294.306 270.467V266.367Z" fill="white"/>
<path d="M319.006 264.267V275.467L320.506 275.567L320.406 282.367H317.706L317.606 277.967H308.606L308.406 282.367H305.706L305.606 275.567L306.806 275.467C307.406 274.567 307.806 273.667 308.206 272.667C308.706 271.067 308.906 269.467 308.906 267.767V264.267H319.006V264.267ZM311.906 268.667C311.906 270.167 311.706 271.567 311.306 272.967C311.106 273.867 310.706 274.667 310.306 275.367H315.606V266.767H311.906V268.667V268.667Z" fill="white"/>
<path d="M334.506 264.267V277.967H331.006V266.967H327.306V269.967C327.306 273.567 326.906 275.967 325.306 277.167C324.506 277.967 323.506 278.267 321.906 278.267L321.506 275.567C322.106 275.467 322.606 275.267 323.006 274.867C324.006 274.067 324.106 272.467 324.106 269.767V264.267H334.506Z" fill="white"/>
<path d="M349.406 277.967H346.006V272.567H344.706C343.706 272.567 343.106 272.967 342.606 273.467C341.706 274.267 341.406 275.667 340.906 276.867C340.706 277.267 340.606 277.567 340.406 277.967H336.706C337.006 277.567 337.306 276.967 337.506 276.467C338.006 275.267 338.506 273.467 339.606 272.567C340.006 272.167 340.606 271.767 341.206 271.667V271.567C339.606 271.367 337.606 270.367 337.606 268.167C337.606 266.567 338.506 265.567 339.706 264.967C340.906 264.367 342.706 264.067 344.506 264.067C346.406 264.067 348.206 264.167 349.406 264.367V277.967V277.967ZM346.006 266.367C345.506 266.267 345.006 266.267 344.306 266.267C342.806 266.267 341.206 266.767 341.206 268.367C341.206 269.767 342.906 270.467 344.306 270.467C345.106 270.467 345.606 270.467 346.006 270.467V266.367Z" fill="white"/>
<path d="M361.106 264.267L363.606 271.567C363.906 272.367 364.206 273.467 364.406 274.267H364.506C364.706 273.467 365.006 272.467 365.206 271.567L367.306 264.267H371.006L367.606 273.567C365.706 278.667 364.406 280.967 362.806 282.367C361.406 283.567 360.006 284.067 359.206 284.167L358.406 281.267C359.006 281.167 359.706 280.867 360.406 280.267C361.006 279.867 361.806 279.067 362.306 278.067C362.406 277.767 362.506 277.667 362.506 277.467C362.506 277.367 362.506 277.167 362.306 276.767L357.306 264.167H361.106V264.267Z" fill="white"/>
<path d="M382.806 277.567C382.106 277.867 380.606 278.267 378.906 278.267C374.606 278.267 371.806 275.567 371.806 271.267C371.806 267.167 374.606 263.967 379.406 263.967C380.706 263.967 382.006 264.267 382.706 264.567L382.106 267.167C381.506 266.867 380.706 266.667 379.506 266.667C376.906 266.667 375.306 268.567 375.306 271.067C375.306 273.867 377.106 275.467 379.506 275.467C380.706 275.467 381.606 275.167 382.206 274.967L382.806 277.567Z" fill="white"/>
<path d="M397.406 264.267V277.967H393.906V266.967H388.706V277.967H385.206V264.267H397.406Z" fill="white"/>
<path d="M403.506 272.067C403.606 274.567 405.506 275.567 407.706 275.567C409.306 275.567 410.506 275.367 411.506 274.967L412.006 277.367C410.806 277.867 409.206 278.167 407.206 278.167C402.806 278.167 400.106 275.467 400.106 271.267C400.106 267.467 402.406 263.867 406.806 263.867C411.206 263.867 412.706 267.567 412.706 270.567C412.706 271.167 412.606 271.767 412.606 272.067H403.506ZM409.606 269.667C409.606 268.367 409.106 266.367 406.806 266.367C404.706 266.367 403.806 268.267 403.606 269.667H409.606Z" fill="white"/>
<path d="M419.006 264.267V275.267H423.006V264.267H426.406V275.267H430.406V264.267H433.806V277.967H415.506V264.267H419.006Z" fill="white"/>
<path d="M441.006 264.267V269.467H446.306V264.267H449.806V277.967H446.306V272.167H441.006V277.967H437.506V264.267H441.006Z" fill="white"/>
<path d="M466.406 270.967C466.406 275.967 462.906 278.267 459.406 278.267C455.506 278.267 452.506 275.567 452.506 271.167C452.506 266.667 455.506 263.867 459.606 263.867C463.706 263.967 466.406 266.867 466.406 270.967ZM456.106 271.167C456.106 273.767 457.406 275.767 459.506 275.767C461.506 275.767 462.806 273.867 462.806 271.067C462.806 268.967 461.806 266.467 459.506 266.467C457.106 266.467 456.106 268.867 456.106 271.167Z" fill="white"/>
<path d="M478.306 264.267V266.967H472.706V277.967H469.206V264.267H478.306Z" fill="white"/>
<path d="M493.106 270.967C493.106 275.967 489.606 278.267 486.106 278.267C482.206 278.267 479.206 275.567 479.206 271.167C479.206 266.667 482.206 263.867 486.306 263.867C490.406 263.967 493.106 266.867 493.106 270.967ZM482.806 271.167C482.806 273.767 484.106 275.767 486.206 275.767C488.206 275.767 489.506 273.867 489.506 271.067C489.506 268.967 488.506 266.467 486.206 266.467C483.806 266.467 482.806 268.867 482.806 271.167Z" fill="white"/>
<path d="M511.806 277.567C511.106 277.867 509.606 278.267 507.906 278.267C503.606 278.267 500.806 275.567 500.806 271.267C500.806 267.167 503.606 263.967 508.406 263.967C509.706 263.967 511.006 264.267 511.706 264.567L511.106 267.167C510.506 266.867 509.706 266.667 508.506 266.667C505.906 266.667 504.306 268.567 504.306 271.067C504.306 273.867 506.106 275.467 508.506 275.467C509.706 275.467 510.606 275.167 511.206 274.967L511.806 277.567Z" fill="white"/>
<path d="M527.206 270.967C527.206 275.967 523.706 278.267 520.206 278.267C516.306 278.267 513.306 275.567 513.306 271.167C513.306 266.667 516.306 263.867 520.406 263.867C524.506 263.967 527.206 266.867 527.206 270.967ZM516.906 271.167C516.906 273.767 518.206 275.767 520.306 275.767C522.306 275.767 523.606 273.867 523.606 271.067C523.606 268.967 522.606 266.467 520.306 266.467C517.906 266.467 516.906 268.867 516.906 271.167Z" fill="white"/>
<path d="M539.906 264.267V266.967H535.806V277.967H532.306V266.967H528.206V264.267H539.906Z" fill="white"/>
<path d="M541.906 268.767C541.906 266.967 541.806 265.467 541.806 264.167H544.806L545.006 266.267H545.106C546.106 264.767 547.706 263.867 549.806 263.867C553.006 263.867 555.606 266.567 555.606 270.867C555.606 275.867 552.506 278.167 549.406 278.167C547.706 278.167 546.206 277.467 545.506 276.367H545.406V283.467H541.906V268.767ZM545.406 272.267C545.406 272.567 545.406 272.867 545.506 273.267C545.806 274.667 547.106 275.667 548.506 275.667C550.706 275.667 552.006 273.867 552.006 271.167C552.006 268.767 550.806 266.767 548.606 266.767C547.206 266.767 545.806 267.767 545.506 269.367C545.406 269.667 545.406 269.967 545.406 270.267V272.267Z" fill="white"/>
<path d="M560.106 264.267L562.606 271.567C562.906 272.367 563.206 273.467 563.406 274.267H563.506C563.706 273.467 564.006 272.467 564.206 271.567L566.306 264.267H570.006L566.606 273.567C564.706 278.667 563.406 280.967 561.806 282.367C560.406 283.567 559.006 284.067 558.206 284.167L557.406 281.267C558.006 281.167 558.706 280.867 559.406 280.267C560.006 279.867 560.806 279.067 561.306 278.067C561.406 277.767 561.506 277.667 561.506 277.467C561.506 277.367 561.506 277.167 561.306 276.767L556.306 264.167H560.106V264.267Z" fill="white"/>
<path d="M583.106 264.267V275.467L584.606 275.567L584.505 282.367H581.906L581.805 277.967H572.805L572.606 282.367H570.005L569.906 275.567L571.106 275.467C571.706 274.567 572.105 273.667 572.505 272.667C573.005 271.067 573.206 269.467 573.206 267.767V264.267H583.106V264.267ZM576.005 268.667C576.005 270.167 575.806 271.567 575.406 272.967C575.206 273.867 574.806 274.667 574.406 275.367H579.706V266.767H576.005V268.667V268.667Z" fill="white"/>
<path d="M590.606 264.267V269.467H595.906V264.267H599.406V277.967H595.906V272.167H590.606V277.967H587.106V264.267H590.606Z" fill="white"/>
<path d="M606.306 264.267V269.167C606.306 271.367 606.206 272.767 606.106 274.667H606.206C606.906 273.067 607.406 272.067 608.106 270.567L611.506 264.167H615.706V277.867H612.406V272.967C612.406 270.767 612.506 269.767 612.606 267.167H612.506C611.806 268.767 611.406 269.767 610.706 271.067C609.606 273.067 608.406 275.567 607.206 277.867H603.106V264.167H606.306V264.267Z" fill="white"/>
<path d="M622.306 264.267V268.567C622.306 270.167 622.906 271.167 624.706 271.167C625.606 271.167 626.506 270.867 627.006 270.367V264.267H630.506V277.967H627.006V272.667H626.906C626.006 273.267 624.606 273.567 623.306 273.567C620.506 273.567 618.706 272.067 618.706 268.867V264.167H622.306V264.267Z" fill="white"/>
<path d="M636.606 272.067C636.706 274.567 638.606 275.567 640.806 275.567C642.406 275.567 643.606 275.367 644.606 274.967L645.106 277.367C643.906 277.867 642.306 278.167 640.306 278.167C635.906 278.167 633.206 275.467 633.206 271.267C633.206 267.467 635.506 263.867 639.906 263.867C644.306 263.867 645.806 267.567 645.806 270.567C645.806 271.167 645.706 271.767 645.706 272.067H636.606ZM642.706 269.667C642.706 268.367 642.206 266.367 639.906 266.367C637.806 266.367 636.906 268.267 636.706 269.667H642.706Z" fill="white"/>
<path d="M658.806 277.567C658.106 277.867 656.606 278.267 654.906 278.267C650.606 278.267 647.806 275.567 647.806 271.267C647.806 267.167 650.606 263.967 655.406 263.967C656.706 263.967 658.006 264.267 658.706 264.567L658.106 267.167C657.506 266.867 656.706 266.667 655.506 266.667C652.906 266.667 651.306 268.567 651.306 271.067C651.306 273.867 653.106 275.467 655.506 275.467C656.706 275.467 657.606 275.167 658.206 274.967L658.806 277.567Z" fill="white"/>
<path d="M671.906 264.267V266.967H667.806V277.967H664.306V266.967H660.206V264.267H671.906Z" fill="white"/>
<path d="M673.906 264.467C674.906 264.267 677.006 264.167 678.906 264.167C681.206 264.167 685.406 264.467 685.406 267.667C685.406 269.367 684.006 270.367 682.606 270.667V270.767C684.606 271.067 686.005 272.167 686.005 274.067C686.005 277.867 681.005 278.167 678.305 278.167C676.605 278.167 674.806 278.067 673.906 277.967V264.467ZM677.206 275.867C677.806 275.967 678.206 275.967 678.906 275.967C680.506 275.967 682.406 275.567 682.406 273.967C682.406 272.467 680.906 271.867 678.706 271.867H677.206V275.867ZM677.305 269.767H678.706C680.506 269.767 681.906 269.267 681.906 267.967C681.906 266.867 680.906 266.267 678.906 266.267C678.206 266.267 677.806 266.367 677.206 266.367V269.767H677.305Z" fill="white"/>
<path d="M696.606 277.967L696.406 276.467H696.305C695.505 277.567 694.006 278.267 692.206 278.267C689.406 278.267 687.906 276.267 687.906 274.167C687.906 270.667 691.005 268.967 696.005 268.967V268.767C696.005 267.867 695.606 266.367 693.206 266.367C691.806 266.367 690.405 266.767 689.505 267.367L688.805 265.067C689.805 264.467 691.605 263.867 693.805 263.867C698.205 263.867 699.505 266.667 699.505 269.667V274.667C699.505 275.867 699.606 277.067 699.706 277.967H696.606V277.967ZM696.106 271.267C693.706 271.167 691.305 271.767 691.305 273.867C691.305 275.267 692.205 275.867 693.305 275.867C694.705 275.867 695.705 274.967 696.005 273.967C696.105 273.667 696.106 273.467 696.106 273.167V271.267V271.267Z" fill="white"/>
<path d="M317.306 12.8673C326.306 12.8673 332.806 14.8673 336.706 18.9673C340.606 23.0673 342.606 29.0673 342.606 37.0673V45.7673C342.606 53.7673 340.606 59.7673 336.706 63.8673C332.806 67.9673 326.306 69.9673 317.306 69.9673H268.706V92.4673C268.706 94.1673 267.806 95.0673 266.106 95.0673H253.406C251.606 95.0673 250.706 94.1673 250.706 92.4673V16.3673C250.706 14.0673 251.906 12.8673 254.206 12.8673H317.306V12.8673ZM268.706 54.4673H313.706C317.706 54.4673 320.506 53.5673 322.206 51.8673C323.806 50.1673 324.706 47.5673 324.706 43.9673V39.4673C324.706 35.9673 323.906 33.3673 322.206 31.5673C320.606 29.8673 317.706 28.9673 313.706 28.9673H270.306C269.306 28.9673 268.806 29.4673 268.806 30.3673V54.4673H268.706Z" fill="white"/>
<path d="M413.206 30.5673C414.606 30.5673 415.305 31.2673 415.305 32.6673V42.5673C415.305 43.9673 414.606 44.6673 413.206 44.6673H382.005C379.505 44.6673 377.405 44.8673 375.805 45.2673C374.205 45.6673 372.806 46.3673 371.906 47.3673C370.906 48.3673 370.205 49.6673 369.805 51.3673C369.405 53.0673 369.206 55.0673 369.206 57.5673V92.4673C369.206 94.1673 368.306 95.0673 366.606 95.0673H355.106C353.306 95.0673 352.406 94.1673 352.406 92.4673V54.3673C352.406 50.1673 352.905 46.5673 353.805 43.4673C354.705 40.4673 356.306 37.9673 358.406 36.0673C360.606 34.1673 363.405 32.7673 367.005 31.8673C370.605 30.9673 375.005 30.4673 380.305 30.4673H413.206V30.5673Z" fill="white"/>
<path d="M484.806 30.5673C490.006 30.5673 494.506 31.0673 498.106 31.9673C501.706 32.8673 504.606 34.2673 506.706 36.1673C508.906 38.0673 510.406 40.5673 511.306 43.5673C512.206 46.5673 512.706 50.1673 512.706 54.4673V71.3673C512.706 75.5673 512.206 79.1673 511.306 82.2673C510.406 85.2673 508.806 87.7673 506.706 89.6673C504.506 91.5673 501.706 92.9673 498.106 93.8673C494.506 94.7673 490.106 95.1673 484.806 95.1673H451.606C446.306 95.1673 441.806 94.7673 438.306 93.8673C434.706 92.9673 431.906 91.6673 429.706 89.6673C427.506 87.7673 426.006 85.2673 425.106 82.2673C424.206 79.2673 423.706 75.6673 423.706 71.3673V54.4673C423.706 50.2673 424.206 46.6673 425.106 43.5673C426.006 40.5673 427.606 38.0673 429.706 36.1673C431.906 34.2673 434.706 32.8673 438.306 31.9673C441.906 31.0673 446.306 30.5673 451.606 30.5673H484.806ZM440.406 68.3673C440.406 70.8673 440.606 72.9673 441.006 74.5673C441.406 76.1673 442.106 77.5673 443.106 78.4673C444.106 79.4673 445.406 80.1673 447.006 80.5673C448.606 80.9673 450.706 81.1673 453.206 81.1673H483.106C485.706 81.1673 487.806 80.9673 489.406 80.5673C491.006 80.1673 492.406 79.4673 493.306 78.4673C494.306 77.4673 495.006 76.1673 495.406 74.5673C495.806 72.9673 496.006 70.8673 496.006 68.3673V57.1673C496.006 54.7673 495.806 52.6673 495.406 51.0673C495.006 49.4673 494.306 48.0673 493.306 47.0673C492.306 46.0673 491.006 45.3673 489.406 44.9673C487.806 44.5673 485.606 44.3673 483.106 44.3673H453.206C450.706 44.3673 448.606 44.5673 447.006 44.9673C445.406 45.3673 444.006 46.0673 443.106 47.0673C442.106 48.0673 441.406 49.3673 441.006 51.0673C440.606 52.6673 440.406 54.7673 440.406 57.1673V68.3673Z" fill="white"/>
<path d="M260.706 138.267C265.906 138.267 270.306 138.767 273.906 139.667C277.506 140.567 280.306 141.967 282.506 143.867C284.706 145.767 286.206 148.267 287.106 151.267C288.006 154.267 288.506 157.867 288.506 162.167V200.267C288.506 201.967 287.606 202.867 285.906 202.867H274.406C272.706 202.867 271.806 201.967 271.806 200.267V166.167C271.806 163.767 271.606 161.667 271.306 159.967C271.006 158.267 270.406 156.967 269.506 155.967C268.606 154.967 267.406 154.267 265.906 153.867C264.306 153.467 262.306 153.267 259.706 153.267H239.006V200.267C239.006 201.967 238.106 202.867 236.306 202.867H224.806C223.106 202.867 222.206 201.967 222.206 200.267V153.267H202.206C199.706 153.267 197.606 153.467 196.006 153.867C194.406 154.267 193.006 154.967 192.106 155.967C191.106 156.967 190.406 158.267 190.006 159.967C189.606 161.667 189.406 163.667 189.406 166.167V200.267C189.406 201.967 188.506 202.867 186.806 202.867H175.306C173.506 202.867 172.606 201.967 172.606 200.267V162.167C172.606 157.967 173.106 154.367 174.006 151.267C174.906 148.267 176.506 145.767 178.606 143.867C180.806 141.967 183.606 140.567 187.206 139.667C190.806 138.767 195.206 138.267 200.506 138.267H260.706V138.267Z" fill="white"/>
<path d="M355.306 138.267C360.506 138.267 365.006 138.767 368.606 139.667C372.206 140.567 375.106 141.967 377.206 143.867C379.406 145.767 380.906 148.267 381.806 151.267C382.706 154.267 383.206 157.867 383.206 162.167V193.367C383.206 195.267 383.106 196.767 382.806 197.967C382.506 199.167 382.106 200.167 381.406 200.867C380.706 201.567 379.906 202.067 378.806 202.367C377.706 202.667 376.306 202.767 374.606 202.767H318.706C315.306 202.767 312.406 202.467 310.106 201.767C307.806 201.067 305.906 200.067 304.506 198.767C303.106 197.467 302.106 195.667 301.506 193.567C300.906 191.467 300.606 188.967 300.606 186.067V180.467C300.606 178.067 300.906 175.867 301.506 173.967C302.106 172.067 303.106 170.467 304.506 169.067C305.906 167.767 307.806 166.767 310.106 166.067C312.406 165.367 315.306 165.067 318.706 165.067H366.506V162.867C366.506 160.967 366.306 159.367 365.906 158.067C365.506 156.767 364.806 155.667 363.906 154.867C363.006 154.067 361.706 153.467 360.006 153.067C358.406 152.667 356.206 152.467 353.706 152.467H304.606C303.206 152.467 302.506 151.767 302.506 150.367V140.467C302.506 139.067 303.206 138.367 304.606 138.367H355.306V138.267ZM363.006 189.867C364.206 189.867 365.106 189.567 365.606 188.967C366.106 188.367 366.406 187.367 366.406 185.867V175.567H323.406C321.006 175.567 319.306 176.067 318.306 177.067C317.306 178.067 316.806 179.467 316.806 181.367V183.867C316.806 185.967 317.306 187.567 318.306 188.467C319.306 189.467 321.006 189.967 323.406 189.967H363.006V189.867Z" fill="white"/>
<path d="M456.206 138.267C457.606 138.267 458.306 138.967 458.306 140.367V150.267C458.306 151.667 457.606 152.367 456.206 152.367H425.006C422.506 152.367 420.406 152.567 418.806 152.967C417.206 153.367 415.806 154.067 414.906 155.067C413.906 156.067 413.206 157.367 412.806 159.067C412.406 160.767 412.206 162.767 412.206 165.267V200.167C412.206 201.867 411.306 202.767 409.606 202.767H398.106C396.306 202.767 395.406 201.867 395.406 200.167V162.067C395.406 157.867 395.906 154.267 396.806 151.167C397.706 148.167 399.306 145.667 401.406 143.767C403.606 141.867 406.406 140.467 410.006 139.567C413.606 138.667 418.006 138.167 423.306 138.167H456.206V138.267Z" fill="white"/>
<path d="M481.806 114.667C483.506 114.667 484.406 115.567 484.406 117.267V163.767H506.006C507.606 163.767 509.006 163.667 510.206 163.567C511.306 163.467 512.306 163.167 513.206 162.867C514.106 162.467 514.806 162.067 515.506 161.367C516.206 160.767 516.906 159.867 517.706 158.767L530.906 140.167C531.406 139.467 531.906 138.967 532.406 138.667C532.906 138.367 533.606 138.167 534.506 138.167H547.806C548.706 138.167 549.206 138.467 549.406 139.167C549.606 139.867 549.506 140.567 548.906 141.367L533.706 162.167C531.406 165.367 528.906 167.867 526.406 169.667C529.606 171.467 532.406 173.967 534.706 177.167L551.406 199.667C551.906 200.267 552.006 200.967 551.706 201.567C551.406 202.267 550.906 202.567 550.006 202.567H536.806C535.806 202.567 535.006 202.467 534.606 202.167C534.106 201.967 533.706 201.467 533.206 200.867L518.906 181.167C517.506 179.267 516.006 177.967 514.406 177.267C512.806 176.567 510.406 176.167 507.206 176.167H484.506V199.867C484.506 201.567 483.606 202.467 481.906 202.467H470.406C468.606 202.467 467.706 201.567 467.706 199.867V116.967C467.706 115.267 468.606 114.367 470.406 114.367H481.806V114.667Z" fill="white"/>
<path d="M618.406 138.267C622.406 138.267 625.706 138.567 628.306 139.267C630.906 139.967 633.006 141.067 634.506 142.567C636.006 144.067 637.106 146.067 637.706 148.567C638.306 151.067 638.606 154.067 638.606 157.567V168.767C638.606 171.267 638.106 172.967 637.006 173.967C635.906 174.967 634.206 175.467 631.906 175.467H572.706V178.267C572.706 181.967 573.606 184.567 575.306 186.267C577.106 187.867 580.506 188.767 585.606 188.767H634.606C636.006 188.767 636.706 189.467 636.706 190.867V200.767C636.706 202.167 636.006 202.867 634.606 202.867H584.006C578.706 202.867 574.206 202.467 570.706 201.567C567.106 200.667 564.306 199.367 562.106 197.367C559.906 195.467 558.406 192.967 557.506 189.967C556.606 186.967 556.106 183.367 556.106 179.067V162.167C556.106 157.967 556.606 154.367 557.506 151.267C558.406 148.267 560.006 145.767 562.106 143.867C564.306 141.967 567.106 140.567 570.706 139.667C574.306 138.767 578.706 138.267 584.006 138.267H618.406V138.267ZM572.706 164.967H620.306C621.606 164.967 622.306 164.267 622.306 162.967V158.067C622.306 155.667 621.806 153.967 620.806 152.867C619.806 151.867 617.906 151.367 615.206 151.367H585.706C580.606 151.367 577.206 152.167 575.406 153.767C573.606 155.367 572.806 158.067 572.806 161.767V164.967H572.706Z" fill="white"/>
<path d="M659.206 138.267V122.767C659.206 121.067 660.106 120.167 661.806 120.167H673.406C675.106 120.167 676.006 121.067 676.006 122.767V138.267H696.606C698.006 138.267 698.706 138.967 698.706 140.367V149.967C698.706 151.367 698.006 152.067 696.606 152.067H676.006V179.267C676.006 182.567 676.706 184.967 678.006 186.467C679.306 187.967 682.006 188.767 685.906 188.767H697.306C698.706 188.767 699.406 189.467 699.406 190.867V200.467C699.406 201.867 698.706 202.567 697.306 202.567H683.106C678.406 202.567 674.506 202.167 671.506 201.267C668.406 200.367 666.006 199.067 664.206 197.167C662.406 195.267 661.106 192.867 660.406 189.867C659.706 186.867 659.306 183.367 659.306 179.167V151.967H648.106C646.706 151.967 646.006 151.267 646.006 149.867V140.267C646.006 138.867 646.706 138.167 648.106 138.167H659.206V138.267Z" fill="white"/>
<path d="M1.20557 234.467H699.406" stroke="#189CD8" stroke-width="6.1808" stroke-miterlimit="10"/>
<path d="M44.1056 133.067C26.6056 90.8673 46.6056 42.4673 88.7056 24.9673C121.206 11.4673 157.406 20.2673 180.306 44.2673C156.506 11.3673 112.406 -2.23272 73.2056 14.0673C27.5056 33.0673 5.80556 85.5673 24.8056 131.367C42.4056 173.667 88.6056 195.367 131.606 183.367C95.4056 188.267 58.9056 168.467 44.1056 133.067Z" fill="white"/>
<path d="M216.506 5.0673C207.706 -4.4327 186.206 -0.13269 159.206 14.2673C158.506 14.6673 192.406 0.667315 200.406 10.8673C211.906 25.3673 166.906 82.6673 126.706 120.467C86.6056 158.167 25.9056 200.167 12.4056 187.567C2.00559 177.867 23.2056 138.567 22.7056 139.167C2.40558 169.167 -5.59443 194.167 4.10557 204.667C20.5056 222.367 81.4056 192.067 140.006 136.967C198.706 81.8673 232.906 22.7673 216.506 5.0673Z" fill="white"/>
</svg>
