<svg width="70" height="70" viewBox="0 0 70 70" fill="none" xmlns="http://www.w3.org/2000/svg">
<path fill-rule="evenodd" clip-rule="evenodd" d="M42.4586 18.8729C42.4586 15.3474 45.2665 12.4792 48.718 12.4792C52.1696 12.4792 54.9775 15.3474 54.9775 18.8729C54.9775 22.3984 52.1696 25.2665 48.718 25.2665C45.2665 25.2665 42.4586 22.3984 42.4586 18.8729ZM46.1873 18.8729C46.1873 20.2983 47.3225 21.4579 48.718 21.4579C50.1136 21.4579 51.2488 20.2983 51.2488 18.8729C51.2488 17.4475 50.1136 16.2878 48.718 16.2878C47.3225 16.2878 46.1873 17.4475 46.1873 18.8729Z" fill="#0B418F"/>
<path fill-rule="evenodd" clip-rule="evenodd" d="M64.8172 16.376L64.6643 15.3401L61.0506 13.7125C60.596 12.5777 59.9965 11.5179 59.2592 10.5468L59.686 6.53856L58.8872 5.88526C57.6016 4.83396 56.1763 3.9915 54.6508 3.38149L53.6967 3L50.5095 5.38316C49.3215 5.21939 48.1146 5.21939 46.9266 5.38316L43.7395 3L42.7854 3.38149C41.2598 3.9915 39.8344 4.83383 38.549 5.88526L37.7502 6.53856L38.177 10.5468C37.4399 11.5179 36.8402 12.5778 36.3856 13.7127L32.7719 15.3402L32.619 16.3761C32.4977 17.1985 32.4362 18.0386 32.4362 18.8729C32.4362 19.7074 32.4977 20.5474 32.619 21.3698L32.7719 22.4058L36.3856 24.0333C36.84 25.168 37.4399 26.2279 38.177 27.199L37.7502 31.2071L38.549 31.8604C39.8345 32.9117 41.2599 33.7542 42.7854 34.3642L43.7395 34.7457L46.9266 32.3625C48.1145 32.5262 49.3218 32.5262 50.5095 32.3625L53.6967 34.7457L54.6508 34.3642C56.1764 33.7542 57.6018 32.9119 58.8872 31.8604L59.686 31.2071L59.2592 27.199C59.9963 26.2279 60.596 25.168 61.0506 24.0333L64.6643 22.4058L64.8172 21.3698C64.9385 20.5474 65 19.7074 65 18.8729C65 18.0385 64.9385 17.1984 64.8172 16.376ZM61.2399 19.7856L58.0754 21.2108L57.8129 22.0061C57.4053 23.2412 56.769 24.3654 55.922 25.3478L55.3787 25.9777L55.753 29.4933C55.2588 29.8358 54.7426 30.1411 54.2074 30.4075L51.4171 28.321L50.6125 28.4853C49.367 28.7398 48.0694 28.7398 46.824 28.4853L46.0193 28.321L43.229 30.4075C42.6938 30.1411 42.1777 29.8358 41.6835 29.4933L42.0577 25.9778L41.5144 25.3479C40.6673 24.3655 40.031 23.2411 39.6234 22.0061L39.3609 21.2108L36.1965 19.7856C36.1756 19.4817 36.165 19.1768 36.165 18.8728C36.165 18.5687 36.1756 18.2639 36.1965 17.9601L39.3609 16.535L39.6234 15.7396C40.031 14.5045 40.6673 13.3802 41.5143 12.3978L42.0576 11.7679L41.6832 8.25242C42.1774 7.9099 42.6936 7.60458 43.2288 7.33823L46.0191 9.4247L46.8237 9.2603C48.0696 9.00588 49.3663 9.00588 50.6122 9.2603L51.4169 9.4247L54.2072 7.33823C54.7424 7.60458 55.2585 7.9099 55.7527 8.25242L55.3785 11.7679L55.9217 12.3978C56.7689 13.3802 57.4051 14.5046 57.8128 15.7396L58.0753 16.535L61.2397 17.9601C61.2606 18.264 61.2712 18.5689 61.2712 18.8728C61.2712 19.1767 61.2607 19.4818 61.2399 19.7856Z" fill="#0B418F"/>
<path fill-rule="evenodd" clip-rule="evenodd" d="M14.6986 48.0301C14.6986 42.481 19.1185 37.9666 24.5511 37.9666C29.9836 37.9666 34.4035 42.481 34.4035 48.0301C34.4035 53.5792 29.9838 58.0937 24.5511 58.0937C19.1183 58.0937 14.6986 53.5792 14.6986 48.0301ZM18.4273 48.03C18.4273 51.479 21.1745 54.2849 24.5511 54.2849C27.9276 54.2849 30.6748 51.479 30.6748 48.03C30.6748 44.5809 27.9278 41.775 24.5511 41.775C21.1743 41.775 18.4273 44.5809 18.4273 48.03Z" fill="#0B418F"/>
<path fill-rule="evenodd" clip-rule="evenodd" d="M41.3667 37.3248C42.5263 39.2217 43.3634 41.2833 43.8547 43.4522L44.1021 44.5434L41.4945 46.9481C41.5166 47.3096 41.5277 47.6711 41.5277 48.0297C41.5277 48.3883 41.5166 48.7498 41.4945 49.1113L44.1021 51.5159L43.8547 52.6077C43.3635 54.7766 42.5264 56.8382 41.3667 58.7351L40.7858 59.6855L37.2808 59.5027C36.8131 60.0435 36.3126 60.5549 35.7831 61.0325L35.9621 64.6124L35.0318 65.2059C33.1745 66.3906 31.1562 67.2456 29.0329 67.7474L27.964 67.9999L25.61 65.3367C24.9022 65.3817 24.2 65.3817 23.4922 65.3367L21.138 68L20.0691 67.7475C17.9459 67.2456 15.9276 66.3908 14.0703 65.206L13.1399 64.6126L13.3188 61.0327C12.7892 60.555 12.2889 60.0439 11.8211 59.5029L8.3163 59.6857L7.73537 58.7354C6.5755 56.8382 5.73841 54.7767 5.24721 52.608L5 51.5162L7.60748 49.1117C7.58535 48.7502 7.57429 48.3887 7.57429 48.0301C7.57429 47.6714 7.58535 47.31 7.60748 46.9484L5 44.5438L5.24696 43.4522C5.73828 41.2834 6.57525 39.2218 7.73512 37.3248L8.31618 36.3745L11.821 36.5574C12.2886 36.0165 12.7891 35.5053 13.3187 35.0276L13.1397 31.4475L14.0702 30.8541C15.9273 29.6697 17.9457 28.8145 20.069 28.3128L21.1379 28.0602L23.4921 30.7236C24.1999 30.6786 24.902 30.6786 25.6099 30.7236L27.964 28.0602L29.0329 28.3128C31.1564 28.8146 33.1746 29.6695 35.0318 30.8541L35.9621 31.4476L35.7831 35.0276C36.3127 35.5053 36.8131 36.0164 37.2808 36.5574L40.7856 36.3745L41.3667 37.3248ZM37.7988 48.0301C37.7988 47.4903 37.7666 46.9416 37.7029 46.3991L37.5878 45.4198L39.9438 43.2473C39.6401 42.2262 39.2389 41.2387 38.7441 40.2946L35.5758 40.4599L34.9792 39.6834C34.3208 38.8266 33.5617 38.0511 32.7227 37.3786L31.9626 36.7692L32.1244 33.5331C31.2002 33.0277 30.2333 32.6179 29.2337 32.3076L27.1067 34.7141L26.1479 34.5966C25.0857 34.4664 24.0167 34.4664 22.9545 34.5966L21.9958 34.7141L19.8688 32.3076C18.8691 32.6179 17.9024 33.0277 16.9781 33.5331L17.1399 36.7692L16.3797 37.3786C15.5406 38.0512 14.7815 38.8266 14.1231 39.6834L13.5265 40.4599L10.3584 40.2946C9.86346 41.2387 9.46225 42.2262 9.15861 43.2473L11.5145 45.4198L11.3994 46.3991C11.3358 46.9416 11.3035 47.4903 11.3035 48.0301C11.3035 48.5699 11.3357 49.1186 11.3994 49.661L11.5145 50.6404L9.15861 52.8129C9.46225 53.834 9.86346 54.8214 10.3584 55.7656L13.5265 55.6003L14.1231 56.3767C14.7816 57.2336 15.5408 58.0092 16.3797 58.6817L17.1399 59.291L16.9781 62.5271C17.9024 63.0326 18.8691 63.4424 19.8688 63.7525L21.9958 61.3462L22.9545 61.4637C24.0167 61.5938 25.0857 61.5938 26.1479 61.4637L27.1067 61.3462L29.2337 63.7525C30.2333 63.4424 31.2 63.0326 32.1244 62.5271L31.9626 59.291L32.7227 58.6817C33.5615 58.0092 34.3207 57.2336 34.9792 56.3767L35.5758 55.6003L38.7441 55.7656C39.2389 54.8215 39.6401 53.834 39.9438 52.8129L37.5878 50.6404L37.7029 49.661C37.7665 49.1186 37.7988 48.5699 37.7988 48.0301Z" fill="#0B418F"/>
</svg>
