<svg width="70" height="70" viewBox="0 0 70 70" fill="none" xmlns="http://www.w3.org/2000/svg">
<path d="M58.0948 10.4909C50.9649 10.5115 44.1235 7.67791 39.0963 2.62196L38.4743 2H32.4712L31.8493 2.62196C26.8221 7.67791 19.9807 10.5115 12.8508 10.4909H10V40.2092C10 56.6476 33.6154 67.1849 34.6237 67.6264L35.4728 68L36.3219 67.6264C37.3302 67.1849 60.9456 56.6476 60.9456 40.2092V10.4909H58.0948ZM56.7001 40.2092C56.7001 52.3215 39.5315 61.3686 35.4728 63.347C31.4078 61.3728 14.2455 52.3449 14.2455 40.2092V14.7046C21.7053 14.3937 28.7992 11.3882 34.2119 6.24547H36.7337C42.1464 11.3882 49.2403 14.3937 56.7001 14.7046V40.2092Z" fill="#0B418F"/>
<path d="M29.1046 25.3501V27.2606C27.1077 26.3566 24.9267 25.9327 22.7364 26.023H20.6137V40.2835C20.6278 48.4465 27.2441 55.0591 35.407 55.0684C43.605 55.0684 52.4547 49.4134 52.4547 40.275C52.4547 34.2422 48.9649 31.0136 45.887 28.1755C42.6477 25.1676 39.852 22.5906 39.852 16.8592V14.7365H37.7293C32.3312 14.7365 29.1046 20.1324 29.1046 25.3501ZM33.3501 33.3953V25.3501C33.3277 23.1817 34.2146 21.1031 35.7955 19.6187C36.6212 25.3713 39.9858 28.4854 43.0128 31.2768C45.9124 33.9748 48.2092 36.0975 48.2092 40.275C48.2092 46.5774 41.5884 50.8229 35.407 50.8229C29.5845 50.8159 24.8662 46.0976 24.8592 40.275V30.3852C27.6378 30.7525 28.3235 31.8372 28.6801 32.4082L29.1046 33.0662V35.9638H33.3501V33.3953Z" fill="#0B418F"/>
<path d="M33.3501 40.2092H29.1046V44.4547H33.3501V40.2092Z" fill="#0B418F"/>
</svg>
