<svg width="70" height="70" viewBox="0 0 70 70" fill="none" xmlns="http://www.w3.org/2000/svg">
<path fill-rule="evenodd" clip-rule="evenodd" d="M27.4889 67H3V3H27.4889V67ZM19.9538 63.2353H23.7214V6.76471H19.9538V63.2353ZM16.1863 63.2353V6.76471H6.76752V10.5294H12.4188V14.2941H6.76752V18.0588H10.535V21.8235H6.76752V25.5882H12.4188V29.3529H6.76752V33.1176H10.535V36.8824H6.76752V40.6471H12.4188V44.4118H6.76752V48.1765H10.535V51.9412H6.76752V55.7059H12.4188V59.4706H6.76752V63.2353H16.1863Z" fill="#0B418F"/>
<path fill-rule="evenodd" clip-rule="evenodd" d="M67 66.0759L63.3284 66.9201L58.1462 44.4118H51.9779V50.0588H48.2104V44.4118H42.0421L36.8598 66.9202C35.426 66.5905 34.6221 66.4057 33.1883 66.076L38.1761 44.4118H35.024V40.6471H39.0429L42.5228 25.5321C41.3628 23.9677 40.6753 22.0333 40.6753 19.9412C40.6753 15.3959 43.9164 11.5933 48.2104 10.7188V3H51.9779V10.7188C56.2719 11.5933 59.5129 15.3959 59.5129 19.9412C59.5129 22.0333 58.8254 23.9677 57.6655 25.5321L61.1454 40.6471H65.1642V44.4118H62.0122L67 66.0759ZM55.7454 19.9412C55.7454 16.8274 53.2102 14.2941 50.0941 14.2941C46.9779 14.2941 44.4429 16.8273 44.4429 19.9412C44.4429 23.0551 46.9779 25.5882 50.0941 25.5882C53.2102 25.5882 55.7454 23.055 55.7454 19.9412ZM51.9779 36.8824V40.6471H57.2795L54.4344 28.2899C53.1345 28.9676 51.6589 29.3529 50.0941 29.3529C48.5294 29.3529 47.0537 28.9674 45.7537 28.2899L42.9087 40.6471H48.2104V36.8824H51.9779Z" fill="#0B418F"/>
</svg>
