<svg width="70" height="70" viewBox="0 0 70 70" fill="none" xmlns="http://www.w3.org/2000/svg">
<path d="M66.0957 14H58.3516C57.2999 14 56.4473 14.8455 56.4473 15.8883V17.7766H52.7927L52.1447 17.1341C50.1066 15.1131 47.3968 14 44.5143 14H36.5517C34.3475 14 32.2753 14.8511 30.7168 16.3967L29.3251 17.7766H14.5527V15.8883C14.5527 14.8455 13.7001 14 12.6484 14H4.9043C3.85262 14 3 14.8455 3 15.8883V48.6192C3 49.6621 3.85262 50.5076 4.9043 50.5076H12.6484C13.7001 50.5076 14.5527 49.6621 14.5527 48.6192V47.8408L19.0766 49.9894L20.2805 53.2694C20.8024 54.6915 21.8515 55.8267 23.2346 56.4664C24.0026 56.8214 24.8225 57 25.6454 57C26.3043 57 26.9653 56.8854 27.6029 56.6554C28.9765 56.1596 30.0418 55.192 30.6823 54.0044C31.3531 54.2714 32.0757 54.414 32.8123 54.4139C33.4596 54.4139 34.1179 54.3039 34.7605 54.072C36.1331 53.5765 37.1979 52.6099 37.8385 51.4235C38.5217 51.6962 39.2403 51.8333 39.961 51.8333C40.6198 51.8333 41.2808 51.7187 41.9184 51.4886C43.291 50.9931 44.3556 50.0267 44.9962 48.8402C45.6796 49.1129 46.3979 49.2498 47.1187 49.2498C47.7775 49.2498 48.4386 49.1353 49.076 48.9053C50.5101 48.3877 51.6549 47.3474 52.2998 45.976C52.3778 45.8103 52.4468 45.6421 52.5079 45.472H56.4473V48.6192C56.4473 49.6621 57.2999 50.5076 58.3516 50.5076H66.0957C67.1474 50.5076 68 49.6621 68 48.6192V15.8883C68 14.8455 67.1474 14 66.0957 14V14ZM10.7441 46.7309H6.80859V17.7766H10.7441V46.7309ZM47.7737 45.3562C47.2956 45.5288 46.7784 45.5062 46.3176 45.2932C45.8566 45.08 45.507 44.7016 45.333 44.2275L43.0517 38.0124C42.6918 37.0325 41.5991 36.5269 40.6108 36.8838C39.6225 37.2406 39.113 38.3241 39.4726 39.3043L41.754 45.5193C42.1131 46.4977 41.6025 47.5834 40.6158 47.9397C40.1379 48.1122 39.6206 48.0898 39.1597 47.8766C38.6986 47.6635 38.349 47.2851 38.175 46.811L35.8937 40.5959C35.5339 39.616 34.441 39.1108 33.4529 39.4673C32.4646 39.8241 31.9551 40.9076 32.3147 41.8878L34.596 48.1027C34.9551 49.0811 34.4445 50.1669 33.4578 50.5231C32.4713 50.8793 31.3763 50.3731 31.017 49.3945L28.7357 43.1794C28.376 42.1995 27.2831 41.6941 26.2949 42.0508C25.3066 42.4075 24.7971 43.4911 25.1567 44.4712L27.4381 50.6863C27.7972 51.6646 27.2866 52.7504 26.3 53.1065C25.822 53.279 25.3048 53.2567 24.8438 53.0436C24.3828 52.8305 24.0331 52.452 23.8592 51.9778L22.3893 47.9734C22.2189 47.5092 21.8718 47.1297 21.4224 46.9164L14.5527 43.6533V21.5533H25.5165L24.4967 22.5645C23.4176 23.6345 22.8235 25.0571 22.8235 26.5702C22.8235 28.0835 23.4177 29.506 24.4968 30.5761C26.7242 32.7845 30.3486 32.7847 32.576 30.5759L37.3087 25.883C37.6684 25.5263 38.1467 25.3298 38.6552 25.3298H42.4498L48.9073 42.9231C48.9087 42.9275 48.9103 42.9317 48.912 42.9362C48.9123 42.9374 48.9127 42.9387 48.9131 42.9399C48.9809 43.1257 49.0139 43.3357 49.0137 43.5821C49.0137 43.6292 49.0171 43.6759 49.0205 43.7226C49.0035 43.9473 48.9473 44.1695 48.8484 44.3798C48.6333 44.8369 48.2516 45.1838 47.7737 45.3562V45.3562ZM52.5091 41.6954C52.5049 41.6832 52.5005 41.6712 52.496 41.659C52.4942 41.6541 52.4924 41.6492 52.4906 41.6443L45.5725 22.7958C45.2986 22.0498 44.5835 21.5533 43.7829 21.5533H38.6549C37.1289 21.5533 35.6944 22.1426 34.6154 23.2126L29.8827 27.9055C29.1402 28.6419 27.9321 28.6419 27.1895 27.9056C26.8299 27.549 26.6318 27.0746 26.6318 26.5703C26.6318 26.066 26.8299 25.5918 27.1895 25.2351L33.4096 19.0673C34.2489 18.2351 35.3647 17.7768 36.5516 17.7768H44.5142C46.3792 17.7768 48.1327 18.497 49.4515 19.8046L50.6573 21.0003C51.0144 21.3544 51.4988 21.5534 52.0038 21.5534H56.4471V41.6955H52.5091V41.6954ZM64.1914 46.7309H60.2559V17.7766H64.1914V46.7309Z" fill="#0B418F"/>
</svg>
