<svg width="70" height="70" viewBox="0 0 70 70" fill="none" xmlns="http://www.w3.org/2000/svg">
<path fill-rule="evenodd" clip-rule="evenodd" d="M48.8301 18.3438C48.8301 15.1905 51.3929 12.625 54.543 12.625C57.693 12.625 60.2559 15.1905 60.2559 18.3438C60.2559 21.497 57.693 24.0625 54.543 24.0625C51.3929 24.0625 48.8301 21.497 48.8301 18.3438ZM52.6387 18.3438C52.6387 19.3947 53.4931 20.25 54.543 20.25C55.5928 20.25 56.4473 19.3947 56.4473 18.3438C56.4473 17.2928 55.5928 16.4375 54.543 16.4375C53.4931 16.4375 52.6387 17.2928 52.6387 18.3438Z" fill="#0B418F"/>
<path fill-rule="evenodd" clip-rule="evenodd" d="M8.71289 5H62.2871C65.4371 5 68 7.56549 68 10.7188V48.8438C68 51.997 65.4371 54.5625 62.2871 54.5625H45.7594L48.2985 62.1875H54.543C55.5948 62.1875 56.4473 63.0408 56.4473 64.0938C56.4473 65.1467 55.5948 66 54.543 66H16.457C15.4052 66 14.5527 65.1467 14.5527 64.0938C14.5527 63.0408 15.4052 62.1875 16.457 62.1875H22.7015L25.2406 54.5625H8.71289C5.56287 54.5625 3 51.997 3 48.8438V10.7188C3 7.56549 5.56287 5 8.71289 5ZM29.2555 54.5625L26.7164 62.1875H44.2836L41.7445 54.5625H29.2555ZM62.2871 50.75C63.337 50.75 64.1914 49.8947 64.1914 48.8438V46.9375H6.80859V48.8438C6.80859 49.8947 7.66305 50.75 8.71289 50.75H62.2871ZM22.0345 30.4355L23.7668 32.169C24.3807 32.7841 24.5012 33.7367 24.0603 34.4853C23.4295 35.5571 22.954 36.7008 22.648 37.8843C22.4303 38.7252 21.672 39.3125 20.8042 39.3125H18.3613V43.125H26.1709C26.044 42.5005 25.9785 41.8616 25.9785 41.2188C25.9785 35.9632 30.2498 31.6875 35.5 31.6875C40.7502 31.6875 45.0215 35.9632 45.0215 41.2188C45.0215 41.8616 44.956 42.5005 44.8291 43.125H52.6387V39.3125H50.1958C49.328 39.3125 48.5697 38.7252 48.3525 37.8843C48.046 36.7008 47.571 35.5571 46.9397 34.4853C46.4983 33.7367 46.6193 32.7841 47.2332 32.1695L48.9655 30.4355L46.2722 27.7395L44.54 29.4735C43.926 30.088 42.9744 30.2092 42.226 29.7678C41.1559 29.1359 40.0133 28.6598 38.831 28.3531C37.991 28.1356 37.4043 27.3766 37.4043 26.5079V24.0625H33.5957V26.5079C33.5957 27.3766 33.009 28.1356 32.169 28.3531C30.9862 28.6598 29.8436 29.1359 28.7735 29.7674C28.0251 30.2092 27.0735 30.088 26.4595 29.4735L24.7273 27.7395L22.0345 30.4355ZM40.8856 43.125C41.0998 42.5164 41.2129 41.8715 41.2129 41.2188C41.2129 38.0655 38.65 35.5 35.5 35.5C32.35 35.5 29.7871 38.0655 29.7871 41.2188C29.7871 41.8715 29.9002 42.5164 30.1144 43.125H40.8856ZM56.4473 43.125H64.1914V10.7188C64.1914 9.66783 63.337 8.8125 62.2871 8.8125H8.71289C7.66305 8.8125 6.80859 9.66783 6.80859 10.7188V43.125H14.5527V37.4063C14.5527 36.3538 15.4052 35.5 16.457 35.5H19.3993C19.5966 34.946 19.8228 34.4014 20.0777 33.8683L17.9953 31.7833C17.2515 31.0387 17.2515 29.8319 17.9953 29.0873L23.3809 23.6956C23.7385 23.3382 24.2225 23.1377 24.7278 23.1377C25.2327 23.1377 25.7172 23.3382 26.0742 23.6956L28.1566 25.7806C28.6897 25.5254 29.2337 25.2986 29.7871 25.1015V22.1563C29.7871 21.1033 30.6396 20.25 31.6914 20.25H39.3086C40.3604 20.25 41.2129 21.1033 41.2129 22.1563V25.1015C41.7663 25.2986 42.3103 25.5254 42.8434 25.7806L44.9258 23.6956C45.2828 23.3382 45.7673 23.1377 46.2722 23.1377C46.777 23.1377 47.2615 23.3382 47.6186 23.6956L53.0047 29.0873C53.7485 29.8319 53.7485 31.0387 53.0051 31.7833L50.9223 33.8678C51.1772 34.4014 51.4039 34.946 51.6012 35.5H54.543C55.5948 35.5 56.4473 36.3533 56.4473 37.4063V43.125Z" fill="#0B418F"/>
</svg>
