<svg width="70" height="70" viewBox="0 0 70 70" fill="none" xmlns="http://www.w3.org/2000/svg">
<path fill-rule="evenodd" clip-rule="evenodd" d="M63.7656 32.3719V30.2656C63.7656 22.7156 60.8255 15.6175 55.4868 10.2788C50.1481 4.94015 43.0501 2 35.5 2C27.9499 2 20.8519 4.94015 15.5132 10.2788C10.1745 15.6175 7.23437 22.7156 7.23437 30.2656V32.3719C4.21715 33.2288 2 36.0068 2 39.2949V49.7637C2 53.7322 5.22869 56.9609 9.19727 56.9609H17.0488C18.1329 56.9609 19.0117 56.0821 19.0117 54.998V30.2656C19.0117 21.1739 26.4083 13.7773 35.5 13.7773C44.5917 13.7773 51.9883 21.1739 51.9883 30.2656V54.998C51.9883 56.0821 52.8671 56.9609 53.9512 56.9609H57.2227V59.1855C57.2227 60.2679 56.3421 61.1484 55.2598 61.1484H42.3596C41.5494 58.8638 39.3675 57.2227 36.8086 57.2227H34.1914C30.9444 57.2227 28.3027 59.8643 28.3027 63.1113C28.3027 66.3583 30.9444 69 34.1914 69H36.8086C39.3675 69 41.5494 67.3589 42.3596 65.0742H55.2598C58.5068 65.0742 61.1484 62.4326 61.1484 59.1855V56.9609H61.8027C65.7713 56.9609 69 53.7322 69 49.7637V39.2949C69 36.0068 66.7828 33.2288 63.7656 32.3719ZM34.1914 65.0742C33.1091 65.0742 32.2285 64.1937 32.2285 63.1113C32.2285 62.029 33.1091 61.1484 34.1914 61.1484H36.8086C37.8909 61.1484 38.7715 62.029 38.7715 63.1113C38.7715 64.1937 37.8909 65.0742 36.8086 65.0742H34.1914ZM15.0859 53.0352H9.19727C7.39337 53.0352 5.92578 51.5676 5.92578 49.7637V39.2949C5.92578 37.491 7.39337 36.0234 9.19727 36.0234H15.0859V53.0352ZM35.5 9.85156C24.2436 9.85156 15.0859 19.0092 15.0859 30.2656V32.0977H11.1602V30.2656C11.1602 16.8446 22.0789 5.92578 35.5 5.92578C48.9211 5.92578 59.8398 16.8446 59.8398 30.2656V32.0977H55.9141V30.2656C55.9141 19.0092 46.7564 9.85156 35.5 9.85156ZM65.0742 49.7637C65.0742 51.5676 63.6066 53.0352 61.8027 53.0352H55.9141V36.0234H61.8027C63.6066 36.0234 65.0742 37.491 65.0742 39.2949V49.7637Z" fill="#0B418F"/>
<path d="M40.0801 35.3691C40.0801 36.4532 39.2012 37.332 38.1172 37.332H32.8828C31.7988 37.332 30.9199 36.4532 30.9199 35.3691C30.9199 34.2851 31.7988 33.4062 32.8828 33.4062H38.1172C39.2012 33.4062 40.0801 34.2851 40.0801 35.3691Z" fill="#0B418F"/>
<path fill-rule="evenodd" clip-rule="evenodd" d="M39.4777 51.2716C39.8375 51.5714 40.2838 51.7266 40.7346 51.7266C41.017 51.7266 41.3013 51.6656 41.5669 51.5413C42.2567 51.2182 42.6973 50.5253 42.6973 49.7637V45.1836H43.3516C45.877 45.1836 47.9316 43.129 47.9316 40.6035V30.1348C47.9316 27.6093 45.877 25.5547 43.3516 25.5547H27.6484C25.123 25.5547 23.0684 27.6093 23.0684 30.1348V40.6035C23.0684 43.129 25.123 45.1836 27.6484 45.1836H32.1721L39.4777 51.2716ZM26.9941 40.6035V30.1348C26.9941 29.774 27.2877 29.4805 27.6484 29.4805H43.3516C43.7123 29.4805 44.0059 29.774 44.0059 30.1348V40.6035C44.0059 40.9643 43.7123 41.2578 43.3516 41.2578H40.7344C39.6503 41.2578 38.7715 42.1367 38.7715 43.2207V45.5729L34.1395 41.7128C33.7867 41.4188 33.342 41.2578 32.8828 41.2578H27.6484C27.2877 41.2578 26.9941 40.9643 26.9941 40.6035Z" fill="#0B418F"/>
</svg>
