<svg width="70" height="70" viewBox="0 0 70 70" fill="none" xmlns="http://www.w3.org/2000/svg">
<g clip-path="url(#clip0)">
<path d="M52.8677 41.6176C48.0023 41.6176 44.0442 45.5757 44.0442 50.4411C44.0442 55.3065 48.0023 59.2647 52.8677 59.2647C57.734 59.2647 61.6913 55.3065 61.6913 50.4411C61.6913 45.5757 57.7332 41.6176 52.8677 41.6176ZM52.8677 54.8529C50.4347 54.8529 48.456 52.8742 48.456 50.4411C48.456 48.0081 50.4347 46.0293 52.8677 46.0293C55.3008 46.0293 57.2795 48.0081 57.2795 50.4411C57.2795 52.8743 55.3008 54.8529 52.8677 54.8529Z" fill="#0B418F"/>
<path d="M22.7206 41.6176C17.8552 41.6176 13.8971 45.5757 13.8971 50.4411C13.8971 55.3065 17.8552 59.2647 22.7206 59.2647C27.5861 59.2647 31.5442 55.3065 31.5442 50.4411C31.5442 45.5757 27.5861 41.6176 22.7206 41.6176ZM22.7206 54.8529C20.2876 54.8529 18.3089 52.8742 18.3089 50.4411C18.3089 48.0081 20.2876 46.0293 22.7206 46.0293C25.153 46.0293 27.1324 48.0081 27.1324 50.4411C27.1324 52.8743 25.1537 54.8529 22.7206 54.8529Z" fill="#0B418F"/>
<path d="M58.8095 16.3618C58.4345 15.617 57.672 15.1471 56.8381 15.1471H45.2205V19.5589H55.4778L61.4844 31.5059L65.4271 29.5235L58.8095 16.3618Z" fill="#0B418F"/>
<path d="M46.2501 48.309H29.559V52.7207H46.2501V48.309Z" fill="#0B418F"/>
<path d="M16.1029 48.309H8.45594C7.2375 48.309 6.25012 49.2965 6.25012 50.5148C6.25012 51.7332 7.23764 52.7206 8.45594 52.7206H16.103C17.3215 52.7206 18.3089 51.7331 18.3089 50.5148C18.3089 49.2963 17.3213 48.309 16.1029 48.309Z" fill="#0B418F"/>
<path d="M69.5368 34.8236L65.1979 29.2353C64.7811 28.6971 64.1377 28.3823 63.456 28.3823H47.4265V12.9412C47.4265 11.7227 46.439 10.7354 45.2207 10.7354H8.45594C7.2375 10.7354 6.25012 11.7229 6.25012 12.9412C6.25012 14.1595 7.23764 15.147 8.45594 15.147H43.0148V30.5881C43.0148 31.8066 44.0023 32.794 45.2206 32.794H62.3758L65.5882 36.9322V48.3087H59.4853C58.2668 48.3087 57.2794 49.2962 57.2794 50.5145C57.2794 51.7329 58.267 52.7203 59.4853 52.7203H67.7941C69.0125 52.7203 69.9999 51.7328 70 50.5145V36.1765C70 35.6868 69.8368 35.2103 69.5368 34.8236Z" fill="#0B418F"/>
<path d="M15.9559 37.1324H5.80873C4.59029 37.1324 3.60291 38.12 3.60291 39.3383C3.60291 40.5567 4.59042 41.5441 5.80873 41.5441H15.9557C17.1742 41.5441 18.1615 40.5566 18.1615 39.3383C18.1617 38.12 17.1742 37.1324 15.9559 37.1324Z" fill="#0B418F"/>
<path d="M21.0294 28.4558H2.20582C0.98752 28.4558 0 29.4433 0 30.6618C0 31.8802 0.98752 32.8676 2.20582 32.8676H21.0294C22.2478 32.8676 23.2352 31.8801 23.2352 30.6618C23.2352 29.4435 22.2478 28.4558 21.0294 28.4558Z" fill="#0B418F"/>
<path d="M24.6323 19.7794H5.80873C4.59029 19.7794 3.60291 20.7669 3.60291 21.9852C3.60291 23.2037 4.59042 24.1911 5.80873 24.1911H24.6323C25.8507 24.1911 26.8381 23.2035 26.8381 21.9852C26.8383 20.7669 25.8507 19.7794 24.6323 19.7794Z" fill="#0B418F"/>
</g>
<defs>
<clipPath id="clip0">
<rect width="70" height="70" fill="white"/>
</clipPath>
</defs>
</svg>
