<svg width="70" height="70" viewBox="0 0 70 70" fill="none" xmlns="http://www.w3.org/2000/svg">
<path fill-rule="evenodd" clip-rule="evenodd" d="M61.6233 2.3777C61.3841 2.13793 61.0524 2 60.7143 2H9.28571C8.94757 2 8.61586 2.13793 8.37671 2.3777C8.13757 2.61746 8 2.95004 8 3.28906V66.7109C8 67.05 8.13757 67.3825 8.37671 67.6223C8.61586 67.8621 8.94757 68 9.28571 68H60.7143C61.0524 68 61.3841 67.8621 61.6233 67.6223C61.8624 67.3825 62 67.05 62 66.7109V40.6719C62 39.9616 61.4227 39.3828 60.7143 39.3828C60.0059 39.3828 59.4286 39.9616 59.4286 40.6719V49.9531H35.6429C34.9328 49.9531 34.3571 50.5302 34.3571 51.2422V65.4219H10.5714V4.57812H59.4286V29.0703C59.4286 29.7806 60.0056 30.3594 60.7143 30.3594C61.423 30.3594 62 29.7806 62 29.0703V3.28906C62 2.95004 61.8624 2.61746 61.6233 2.3777ZM51.0714 62.8437V65.4219H45.2857V62.8437H51.0714ZM59.4286 60.2656H49.7857V57.6875H59.4286V60.2656ZM53.6429 65.4219V62.8437H59.4286V65.4219H53.6429ZM59.4286 55.1094H49.7857V52.5312H59.4286V55.1094ZM36.9286 52.5312H47.2143V60.2656H36.9286V52.5312ZM36.9286 62.8437H42.7143V65.4219H36.9286V62.8437Z" fill="#0B418F"/>
<path d="M60.7143 36.1602C61.4244 36.1602 62 35.583 62 34.8711C62 34.1592 61.4244 33.582 60.7143 33.582C60.0042 33.582 59.4286 34.1592 59.4286 34.8711C59.4286 35.583 60.0042 36.1602 60.7143 36.1602Z" fill="#0B418F"/>
<path fill-rule="evenodd" clip-rule="evenodd" d="M25.3571 10.6367H38.2143C38.9244 10.6367 39.5 11.2138 39.5 11.9258V23.5273H51.0714C51.7815 23.5273 52.3571 24.1045 52.3571 24.8164V37.707C52.3571 38.0489 52.2216 38.3768 51.9806 38.6185L45.552 45.0638C45.3194 45.297 44.9978 45.4414 44.6429 45.4414H18.9286C18.2185 45.4414 17.6429 44.8643 17.6429 44.1523V18.3711C17.6429 18.0152 17.7867 17.693 18.0193 17.4599L24.448 11.0143C24.6891 10.7726 25.0162 10.6367 25.3571 10.6367ZM36.9286 15.038L33.0714 18.9052V28.1497L36.9286 24.2825V15.038ZM35.1102 13.2148H25.8897L22.0325 17.082H31.253L35.1102 13.2148ZM30.5 19.6602H20.2143V42.8633H43.3571V32.5508H31.7857C31.0756 32.5508 30.5 31.9737 30.5 31.2617V19.6602ZM45.9286 31.7958V41.0403L49.7857 37.1731V27.9286L45.9286 31.7958ZM44.1102 29.9727L47.9673 26.1055H38.7468L34.8897 29.9727H44.1102Z" fill="#0B418F"/>
</svg>
